<?xml version="1.0" encoding="iso-8859-1"?>
<!-- Generator: Adobe Illustrator 19.0.0, SVG Export Plug-In . SVG Version: 6.00 Build 0)  -->
<svg version="1.1" id="Layer_1" xmlns="http://www.w3.org/2000/svg" xmlns:xlink="http://www.w3.org/1999/xlink" x="0px" y="0px"
	 viewBox="0 0 512 512" style="enable-background:new 0 0 512 512;" xml:space="preserve">
<polygon style="fill:#EDDABF;" points="10.199,16.274 38.769,258.209 473.232,258.209 501.801,16.274 "/>
<polygon style="fill:#FFA22B;" points="66.816,495.725 445.184,495.725 473.232,258.209 38.769,258.209 "/>
<g>
	
		<rect x="124.372" y="338.682" transform="matrix(-0.7071 -0.7071 0.7071 -0.7071 23.0976 787.4644)" style="fill:#EDDABF;" width="100.533" height="100.533"/>
	
		<rect x="300.353" y="313.269" transform="matrix(-0.7071 -0.7071 0.7071 -0.7071 341.486 868.519)" style="fill:#EDDABF;" width="100.533" height="100.533"/>
</g>
<g>
	<path style="fill:#570029;" d="M56.687,496.921c0.607,5.134,4.959,9.003,10.129,9.003h378.367c5.17,0,9.523-3.869,10.129-9.003
		l56.618-479.45c0.342-2.894-0.57-5.795-2.505-7.972c-1.936-2.178-4.71-3.423-7.624-3.423H10.199c-2.913,0-5.688,1.246-7.623,3.423
		c-1.936,2.178-2.848,5.078-2.506,7.972L56.687,496.921z M436.118,485.526H75.882L50.243,268.408h411.514L436.118,485.526z
		 M464.166,248.01H47.834L21.674,26.474h468.653L464.166,248.01z"/>
	<path style="fill:#570029;" d="M167.422,467.246c1.991,1.991,4.602,2.987,7.212,2.987s5.221-0.996,7.212-2.987l71.085-71.084
		c1.912-1.913,2.987-4.507,2.987-7.212s-1.075-5.298-2.987-7.212l-71.085-71.085c-1.912-1.912-4.507-2.987-7.212-2.987
		s-5.299,1.075-7.212,2.987l-71.085,71.085c-1.912,1.913-2.987,4.507-2.987,7.212s1.075,5.298,2.987,7.212L167.422,467.246z
		 M174.634,332.289l56.662,56.662l-56.662,56.662l-56.662-56.662L174.634,332.289z"/>
	<path style="fill:#570029;" d="M343.411,441.838c1.913,1.912,4.507,2.987,7.212,2.987s5.298-1.075,7.212-2.987l71.084-71.085
		c3.983-3.983,3.983-10.441,0-14.425l-71.084-71.084c-3.983-3.98-10.439-3.982-14.425,0l-71.085,71.084
		c-1.912,1.913-2.987,4.507-2.987,7.212s1.075,5.298,2.987,7.212L343.411,441.838z M350.624,306.879l56.661,56.662l-56.661,56.662
		l-56.662-56.662L350.624,306.879z"/>
	<path style="fill:#570029;" d="M52.731,62.93h152.452c5.633,0,10.199-4.567,10.199-10.199s-4.566-10.199-10.199-10.199H52.731
		c-5.633,0-10.199,4.567-10.199,10.199S47.098,62.93,52.731,62.93z"/>
	<path style="fill:#570029;" d="M243.849,62.93h5.524c5.633,0,10.199-4.567,10.199-10.199s-4.566-10.199-10.199-10.199h-5.524
		c-5.633,0-10.199,4.567-10.199,10.199S238.216,62.93,243.849,62.93z"/>
</g>
<g>
</g>
<g>
</g>
<g>
</g>
<g>
</g>
<g>
</g>
<g>
</g>
<g>
</g>
<g>
</g>
<g>
</g>
<g>
</g>
<g>
</g>
<g>
</g>
<g>
</g>
<g>
</g>
<g>
</g>
</svg>
