<?xml version="1.0" encoding="iso-8859-1"?>
<!-- Generator: Adobe Illustrator 19.0.0, SVG Export Plug-In . SVG Version: 6.00 Build 0)  -->
<svg version="1.1" id="Layer_1" xmlns="http://www.w3.org/2000/svg" xmlns:xlink="http://www.w3.org/1999/xlink" x="0px" y="0px"
	 viewBox="0 0 512 512" style="enable-background:new 0 0 512 512;" xml:space="preserve">
<polygon style="fill:#10744A;" points="312.264,67.516 312.264,101.275 244.747,123.78 244.747,45.011 "/>
<polygon style="fill:#169B62;" points="278.505,45.011 278.505,123.78 199.736,101.275 199.736,67.516 "/>
<polygon style="fill:#0B4E31;" points="312.264,0 312.264,67.516 278.505,67.516 244.747,33.758 278.505,0 "/>
<path style="fill:#FFB88B;" d="M407.912,453.092V247.56c0-18.567-13.098-41.455-29.1-50.874l-66.549-39.148v-56.264h-33.758
	l-67.516,205.363L374.154,512h11.253c18.646,0,33.758-15.112,33.758-33.758C419.165,468.249,414.821,459.27,407.912,453.092z"/>
<path style="fill:#FFCFB2;" d="M278.505,191.297v-90.022h-78.769v56.264l-66.549,39.148c-16.001,9.419-29.1,32.307-29.1,50.874
	v205.531c-6.909,6.178-11.253,15.157-11.253,25.15c0,18.646,15.112,33.758,33.758,33.758h247.56v-33.763L278.505,191.297z"/>
<path style="fill:#FF6638;" d="M374.154,247.56c0-6.617-6.752-18.421-12.457-21.774l-32.554-19.153l-59.831,126.448l71.084,145.16
	h33.758v-59.64L359.7,333.081L374.154,247.56z"/>
<path style="fill:#FF883E;" d="M329.143,206.633l-50.637-29.787h-45.011l-83.192,48.94c-5.705,3.353-12.461,15.157-12.461,21.774
	l37.023,85.521l-37.023,85.521v59.64h202.554V228.407C340.396,221.791,334.57,210.42,329.143,206.633z"/>
<polygon style="fill:#10744A;" points="374.154,247.56 374.154,418.602 340.396,418.602 306.637,333.081 340.396,247.56 "/>
<rect x="137.846" y="247.56" style="fill:#169B62;" width="202.549" height="171.042"/>
<g>
	<rect x="199.736" style="fill:#10744A;" width="78.769" height="67.516"/>
	<path style="fill:#10744A;" d="M346.587,357.99c-2.283,0-4.56-0.92-6.224-2.738l-23.969-26.151l-23.969,26.151
		c-1.598,1.744-3.855,2.738-6.222,2.738c-2.366,0-4.623-0.992-6.222-2.738L256.01,329.1l-23.982,26.155
		c-1.598,1.743-3.855,2.736-6.221,2.736c-2.366,0-4.623-0.994-6.222-2.738L195.616,329.1l-23.982,26.155
		c-3.151,3.434-8.489,3.666-11.925,0.517s-3.666-8.488-0.516-11.924l30.204-32.939c1.598-1.743,3.855-2.736,6.221-2.736
		c2.366,0,4.623,0.994,6.222,2.738l23.971,26.153l23.983-26.155c1.598-1.743,3.855-2.736,6.221-2.736
		c2.366,0,4.623,0.994,6.222,2.738l23.968,26.151l23.969-26.151c1.598-1.744,3.855-2.738,6.222-2.738s4.623,0.992,6.222,2.738
		l30.191,32.939c3.15,3.435,2.917,8.775-0.519,11.923C350.667,357.258,348.624,357.99,346.587,357.99z"/>
</g>
<g>
</g>
<g>
</g>
<g>
</g>
<g>
</g>
<g>
</g>
<g>
</g>
<g>
</g>
<g>
</g>
<g>
</g>
<g>
</g>
<g>
</g>
<g>
</g>
<g>
</g>
<g>
</g>
<g>
</g>
</svg>
